PathFileType	4	(X/Y/Z)	Patient4_TMGait_0pt4_01_left_27.trc.trc
DataRate	CameraRate	NumFrames	NumMarkers	Units	OrigDataRate	OrigDataStartFrame	OrigNumFrames
77.777777777778	77.777777777778	4	33	mm	77.777777777778	124	       141
Frame#	Time	Sacral			L.Shoulder			Chest			R.Shoulder			Neck			R.ASIS			L.ASIS			R.Thigh.Superior			R.Thigh.Lateral			R.Thigh.Inferior			R.Patella			L.Thigh.Superior			L.Thigh.Lateral			L.Thigh.Inferior			L.Patella			L.Shank.Superior			L.Shank.Lateral			L.Shank.Inferior			R.Shank.Superior			R.Shank.Lateral			R.Shank.Inferior			R.Heel			R.Midfoot.Superior			R.Midfoot.Lateral			R.Toe			L.Heel			L.Midfoot.Lateral			L.Midfoot.Superior			L.Toe			L.Elbow			L.Wrist			R.Elbow			R.Wrist			
		X1	Y1	Z1	X2	Y2	Z2	X3	Y3	Z3	X4	Y4	Z4	X5	Y5	Z5	X6	Y6	Z6	X7	Y7	Z7	X8	Y8	Z8	X9	Y9	Z9	X10	Y10	Z10	X11	Y11	Z11	X12	Y12	Z12	X13	Y13	Z13	X14	Y14	Z14	X15	Y15	Z15	X16	Y16	Z16	X17	Y17	Z17	X18	Y18	Z18	X19	Y19	Z19	X20	Y20	Z20	X21	Y21	Z21	X22	Y22	Z22	X23	Y23	Z23	X24	Y24	Z24	X25	Y25	Z25	X26	Y26	Z26	X27	Y27	Z27	X28	Y28	Z28	X29	Y29	Z29	X30	Y30	Z30	X31	Y31	Z31	X32	Y32	Z32	X33	Y33	Z33	

124	34.391428571429	902.876786753589	1007.425656283873	518.435332529934	1074.056547062547	1433.693979291815	327.274557040677	1192.767539301286	1360.687834369503	474.408935408677	1131.531583202051	1435.041249200202	656.820912515398	1079.787035368293	1492.620139671285	484.534574174743	1136.176482427619	936.856546454372	617.892198064626	1105.387357076324	960.071081390415	345.262796908144	1138.668281942047	726.413664806348	590.042892058684	1040.970115834120	630.169722373713	656.974234353806	1101.246071070470	566.589474872558	574.951783382655	1085.164801656091	482.368239682756	580.770050030310	1174.182055469628	768.788632100039	373.481354468420	1116.359611125428	639.771137197836	301.682867376363	1217.882732335400	577.868640207224	361.240557777523	1238.376952638514	510.535975507957	361.252772498690	1217.765605451531	437.742719136369	351.820291085161	1142.311443916455	313.425363787063	300.746545538558	1219.413205463666	207.920631383149	358.001902418623	1048.688614866920	396.702073731685	589.581601484070	968.815371931932	302.215832433785	657.051491012980	995.203273698580	203.053158999366	591.255465724573	845.501053007381	44.851094977071	566.105850020027	1018.163030933213	96.362890296994	598.339964753247	930.055929868703	37.079551843919	639.102314059370	1138.243689195668	40.918806472990	623.217571542619	1119.152304552264	40.901214052907	395.024858484954	1194.529959304129	38.829136630570	316.310415695291	1273.203656304690	106.173746959139	340.752504712883	1403.450918142629	62.184483117116	316.150644825727	951.769935870890	1101.459307379008	226.446281349387	943.672337322235	841.471504684283	205.481938295455	1242.900284850089	1118.161175450476	788.986065774981	1481.047857398837	1061.234261208155	714.297177688685	
125	34.404285714286	904.034844544464	1006.347928385807	515.752022049940	1073.979775797184	1432.755124883393	324.314218161192	1192.730081226632	1360.487865590669	471.758363498836	1130.768636437036	1434.664399460021	654.043604341584	1079.241030056071	1491.891538188607	481.544950106762	1137.350727157414	936.425463283264	616.101209038502	1107.162309818859	958.923879916855	343.469068171831	1139.128452671118	725.558543022205	588.918349802562	1040.303270751439	629.829854961139	655.534032684591	1100.369572322985	565.602339821099	573.988847973077	1083.540196482900	481.300491720013	579.642528127789	1176.204572256185	767.097348007660	372.236445652255	1116.918622189278	637.982135662882	301.849102213459	1218.528744725058	576.253653179422	361.494963335300	1237.809562284615	507.939939207007	362.266635006482	1216.510529604247	434.840747565886	352.829989043045	1139.131452356896	311.578439704688	301.980281173619	1213.862426726414	204.878882049270	359.875891321126	1046.312735630532	396.026649913213	588.668395567043	965.639092366849	302.407533977720	656.502771149788	991.015167834430	202.847671809498	590.949380131457	840.350967619123	45.142157107002	566.277788198718	1013.065791039616	96.378012445230	598.365447442968	924.929815367902	37.098906320696	639.156258212986	1133.112085933160	40.798656313759	623.258310976353	1110.118519382279	39.990916623789	396.551572802717	1185.424251375743	37.668384308718	317.690988525021	1265.442345611952	102.948813121742	343.249943533532	1395.137648795910	56.612410984815	317.972808802262	952.878426292225	1100.241077937166	223.114673646021	948.153176353619	840.007656425631	201.754973008247	1241.000079130439	1116.901948475539	786.108378546397	1478.676524629793	1059.117087252510	710.544981336449	
126	34.417142857143	905.140433253000	1005.450479608578	512.988920195144	1074.031538357878	1431.908082015257	321.197259564687	1192.775640476020	1360.397528033439	468.996444550801	1130.083414602530	1434.472800919783	651.127018269287	1078.802575593755	1491.313415467188	478.373384604485	1138.527251394348	936.110494893577	614.206839488745	1108.881795822777	957.986144339160	341.582818707604	1139.741746015551	724.827803083827	587.729185036555	1039.795769578358	629.601592768518	653.987030779447	1099.735532521050	564.732743029475	572.964091057924	1082.221871252164	480.264109973545	578.483637717067	1178.120180980890	765.600003141710	371.086715634717	1117.725646550098	636.636151482749	301.684443711452	1219.171612518967	574.942247281081	361.747617374629	1237.270408326530	505.758190334132	363.129382382549	1215.447858798158	432.418729098085	353.532122262021	1136.598556231603	310.111835357296	302.624934305820	1208.983602309387	202.391460869783	361.282650394498	1044.147829011778	395.430378878933	587.727256085998	962.586528825507	302.755586088013	655.901780011223	986.960758059312	202.756570857045	590.650194391381	835.228072315758	45.644389173206	566.480454975876	1008.059738510961	96.435951160811	598.418565290619	919.846862425360	37.194630433101	639.214252303854	1128.032268866274	40.628636954321	623.306003023176	1102.114163344259	39.301384574409	397.502838255350	1177.448846492497	36.899626803465	318.596856781893	1258.483921379046	100.481003528714	345.238993066589	1387.784919222086	52.275872793873	319.496581401254	954.527066814614	1098.944963935623	219.580573091116	953.468127995143	838.484517854678	197.836020815946	1238.522010879672	1115.583504750420	783.228650664928	1475.650714217388	1056.052435870547	707.086953639127	
127	34.430000000000	906.174566098004	1004.795955261437	510.177751300334	1074.209285694667	1431.216090602895	317.962824888673	1192.910483015809	1360.439849090219	466.137698509675	1129.527461896095	1434.507832040585	648.087678584161	1078.483965476547	1490.931857704735	475.055773049239	1139.668805299135	935.955855649008	612.192593810226	1110.485873022675	957.315012209594	339.558953242978	1140.449442063989	724.271636480838	586.431091535458	1039.467149378902	629.512133039078	652.339582798224	1099.381373070859	564.025264287410	571.874940020427	1081.290169287346	479.270289111766	577.340179827657	1179.885340161171	764.438054390391	370.006948017587	1118.809244425649	635.796313430466	301.154718453798	1219.836312987266	574.003263229289	361.895801797508	1236.800707338855	504.057286228590	363.731098684701	1214.594146138126	430.523853396428	353.888975486898	1134.696542078021	309.066643524230	302.676935669674	1204.777661029787	200.498897900440	362.210700380095	1042.248208371665	394.932181529085	586.789067826065	959.687470473166	303.290695300974	655.256486594019	983.076848883763	202.809777956197	590.373989498882	830.144556086786	46.424533685234	566.709285845683	1003.173912927628	96.550902258493	598.508148509129	914.815104960196	37.403563147101	639.277279992783	1123.007779445423	40.404928841747	623.362069904913	1095.168426702425	38.845486843237	397.971329730529	1170.593230595494	36.478881335463	319.088978462255	1252.330181281270	98.771424120937	346.681104454904	1381.380648033756	49.178005469740	320.649661541331	956.721742888929	1097.644704627461	215.866415469687	959.588538589971	836.996145698138	193.762193058152	1235.478643535103	1114.256872343866	780.327925105811	1471.955597695162	1052.027261051554	703.940727598137	
